<svg width="501" height="122" viewBox="0 0 501 122" fill="none" xmlns="http://www.w3.org/2000/svg">
<path d="M106.352 51.2C106.352 57.4293 105.371 63.2747 103.408 68.736C101.445 74.112 98.6293 78.848 94.96 82.944C91.376 87.04 87.024 90.24 81.904 92.544C76.8693 94.848 71.28 96 65.136 96H19.952V83.2H65.136C71.024 83.2 76.1013 81.7493 80.368 78.848C84.6347 75.9467 87.8773 72.1067 90.096 67.328C92.4 62.464 93.552 57.088 93.552 51.2C93.552 45.312 92.4 39.936 90.096 35.072C87.8773 30.208 84.6347 26.368 80.368 23.552C76.1013 20.6507 71.024 19.2 65.136 19.2H13.552V96H0.752001V6.39999H65.136C71.28 6.39999 76.8693 7.55199 81.904 9.856C87.024 12.16 91.376 15.4027 94.96 19.584C98.6293 23.68 101.445 28.4587 103.408 33.92C105.371 39.296 106.352 45.056 106.352 51.2ZM137.216 9.6C137.216 12.2453 136.277 14.5067 134.4 16.384C132.523 18.2613 130.261 19.2 127.616 19.2C124.971 19.2 122.709 18.2613 120.832 16.384C118.955 14.5067 118.016 12.2453 118.016 9.6C118.016 6.95466 118.955 4.69333 120.832 2.81599C122.709 0.93866 124.971 -7.62939e-06 127.616 -7.62939e-06C130.261 -7.62939e-06 132.523 0.93866 134.4 2.81599C136.277 4.69333 137.216 6.95466 137.216 9.6ZM134.016 96H121.216V25.6H134.016V96ZM230.93 99.2C230.93 103.296 229.906 107.051 227.858 110.464C225.895 113.877 223.207 116.565 219.794 118.528C216.381 120.576 212.626 121.6 208.53 121.6H157.33V108.8H208.53C211.175 108.8 213.437 107.861 215.314 105.984C217.191 104.107 218.13 101.845 218.13 99.2V38.4H182.93C178.834 38.4 175.122 39.424 171.794 41.472C168.466 43.52 165.778 46.2507 163.73 49.664C161.767 52.992 160.786 56.704 160.786 60.8C160.786 64.896 161.767 68.6507 163.73 72.064C165.778 75.392 168.466 78.08 171.794 80.128C175.122 82.0907 178.834 83.1147 182.93 83.2H211.73V96H182.93C178.066 96 173.501 95.104 169.234 93.312C165.053 91.4347 161.341 88.8747 158.098 85.632C154.941 82.3893 152.466 78.6773 150.674 74.496C148.882 70.2293 147.986 65.664 147.986 60.8C147.986 55.936 148.882 51.4133 150.674 47.232C152.466 42.9653 154.941 39.2107 158.098 35.968C161.341 32.7253 165.053 30.208 169.234 28.416C173.501 26.5387 178.066 25.6 182.93 25.6H230.93V99.2ZM265.341 9.6C265.341 12.2453 264.402 14.5067 262.525 16.384C260.648 18.2613 258.386 19.2 255.741 19.2C253.096 19.2 250.834 18.2613 248.957 16.384C247.08 14.5067 246.141 12.2453 246.141 9.6C246.141 6.95466 247.08 4.69333 248.957 2.81599C250.834 0.93866 253.096 -7.62939e-06 255.741 -7.62939e-06C258.386 -7.62939e-06 260.648 0.93866 262.525 2.81599C264.402 4.69333 265.341 6.95466 265.341 9.6ZM262.141 96H249.341V25.6H262.141V96ZM363.535 60.8C363.535 65.664 362.639 70.2293 360.847 74.496C359.055 78.6773 356.538 82.3893 353.295 85.632C350.138 88.8747 346.426 91.4347 342.159 93.312C337.978 95.104 333.455 96 328.591 96H299.791V83.2H328.591C332.687 83.1147 336.399 82.0907 339.727 80.128C343.14 78.08 345.828 75.392 347.791 72.064C349.754 68.6507 350.735 64.896 350.735 60.8C350.735 56.704 349.754 52.9493 347.791 49.536C345.828 46.1227 343.14 43.4347 339.727 41.472C336.399 39.424 332.687 38.4 328.591 38.4H293.391V121.6H280.591V25.6H328.591C333.455 25.6 337.978 26.5387 342.159 28.416C346.426 30.208 350.138 32.7253 353.295 35.968C356.538 39.2107 359.055 42.9653 360.847 47.232C362.639 51.4133 363.535 55.936 363.535 60.8ZM457.594 96H393.594C389.498 96 385.743 95.0187 382.33 93.056C378.917 91.008 376.186 88.32 374.138 84.992C372.175 81.5787 371.194 77.7813 371.194 73.6C371.194 69.4187 372.175 65.664 374.138 62.336C376.186 58.9227 378.917 56.2347 382.33 54.272C385.743 52.224 389.498 51.2 393.594 51.2H438.394V64H393.594C390.949 64 388.687 64.9387 386.81 66.816C384.933 68.6933 383.994 70.9547 383.994 73.6C383.994 76.2453 384.933 78.5067 386.81 80.384C388.687 82.2613 390.949 83.2 393.594 83.2H444.794V48C444.794 45.3547 443.855 43.0933 441.978 41.216C440.101 39.3387 437.839 38.4 435.194 38.4H383.994V25.6H435.194C439.375 25.6 443.13 26.624 446.458 28.672C449.871 30.6347 452.559 33.3227 454.522 36.736C456.57 40.064 457.594 43.8187 457.594 48V96ZM500.554 96H497.354C493.258 96 489.503 95.0187 486.09 93.056C482.677 91.008 479.946 88.32 477.898 84.992C475.935 81.5787 474.954 77.7813 474.954 73.6V-7.62939e-06H487.754V73.6C487.754 76.2453 488.693 78.5067 490.57 80.384C492.447 82.2613 494.709 83.2 497.354 83.2H500.554V96Z" fill="black"/>
</svg>
