<svg width="706" height="220" viewBox="0 0 706 220" fill="none" xmlns="http://www.w3.org/2000/svg">
<path fill-rule="evenodd" clip-rule="evenodd" d="M113 150H70V106.237H40V150V180H70H113C151.66 180 183 148.66 183 110C183 71.3401 151.66 40 113 40H110.5H70H40V70V70.1075H70V70H110.5H113C135.091 70 153 87.9086 153 110C153 132.091 135.091 150 113 150Z" fill="black"/>
<path d="M0 0L30 21V201L0 220V0Z" fill="black"/>
<path d="M309.352 110.2C309.352 116.429 308.371 122.275 306.408 127.736C304.445 133.112 301.629 137.848 297.96 141.944C294.376 146.04 290.024 149.24 284.904 151.544C279.869 153.848 274.28 155 268.136 155H222.952V142.2H268.136C274.024 142.2 279.101 140.749 283.368 137.848C287.635 134.947 290.877 131.107 293.096 126.328C295.4 121.464 296.552 116.088 296.552 110.2C296.552 104.312 295.4 98.936 293.096 94.072C290.877 89.208 287.635 85.368 283.368 82.552C279.101 79.6507 274.024 78.2 268.136 78.2H216.552V155H203.752V65.4H268.136C274.28 65.4 279.869 66.552 284.904 68.856C290.024 71.16 294.376 74.4027 297.96 78.584C301.629 82.68 304.445 87.4587 306.408 92.92C308.371 98.296 309.352 104.056 309.352 110.2ZM340.216 68.6C340.216 71.2453 339.277 73.5067 337.4 75.384C335.523 77.2613 333.261 78.2 330.616 78.2C327.971 78.2 325.709 77.2613 323.832 75.384C321.955 73.5067 321.016 71.2453 321.016 68.6C321.016 65.9547 321.955 63.6933 323.832 61.816C325.709 59.9387 327.971 59 330.616 59C333.261 59 335.523 59.9387 337.4 61.816C339.277 63.6933 340.216 65.9547 340.216 68.6ZM337.016 155H324.216V84.6H337.016V155ZM433.93 158.2C433.93 162.296 432.906 166.051 430.858 169.464C428.895 172.877 426.207 175.565 422.794 177.528C419.381 179.576 415.626 180.6 411.53 180.6H360.33V167.8H411.53C414.175 167.8 416.437 166.861 418.314 164.984C420.191 163.107 421.13 160.845 421.13 158.2V97.4H385.93C381.834 97.4 378.122 98.424 374.794 100.472C371.466 102.52 368.778 105.251 366.73 108.664C364.767 111.992 363.786 115.704 363.786 119.8C363.786 123.896 364.767 127.651 366.73 131.064C368.778 134.392 371.466 137.08 374.794 139.128C378.122 141.091 381.834 142.115 385.93 142.2H414.73V155H385.93C381.066 155 376.501 154.104 372.234 152.312C368.053 150.435 364.341 147.875 361.098 144.632C357.941 141.389 355.466 137.677 353.674 133.496C351.882 129.229 350.986 124.664 350.986 119.8C350.986 114.936 351.882 110.413 353.674 106.232C355.466 101.965 357.941 98.2107 361.098 94.968C364.341 91.7253 368.053 89.208 372.234 87.416C376.501 85.5387 381.066 84.6 385.93 84.6H433.93V158.2ZM468.341 68.6C468.341 71.2453 467.402 73.5067 465.525 75.384C463.648 77.2613 461.386 78.2 458.741 78.2C456.096 78.2 453.834 77.2613 451.957 75.384C450.08 73.5067 449.141 71.2453 449.141 68.6C449.141 65.9547 450.08 63.6933 451.957 61.816C453.834 59.9387 456.096 59 458.741 59C461.386 59 463.648 59.9387 465.525 61.816C467.402 63.6933 468.341 65.9547 468.341 68.6ZM465.141 155H452.341V84.6H465.141V155ZM566.535 119.8C566.535 124.664 565.639 129.229 563.847 133.496C562.055 137.677 559.538 141.389 556.295 144.632C553.138 147.875 549.426 150.435 545.159 152.312C540.978 154.104 536.455 155 531.591 155H502.791V142.2H531.591C535.687 142.115 539.399 141.091 542.727 139.128C546.14 137.08 548.828 134.392 550.791 131.064C552.754 127.651 553.735 123.896 553.735 119.8C553.735 115.704 552.754 111.949 550.791 108.536C548.828 105.123 546.14 102.435 542.727 100.472C539.399 98.424 535.687 97.4 531.591 97.4H496.391V180.6H483.591V84.6H531.591C536.455 84.6 540.978 85.5387 545.159 87.416C549.426 89.208 553.138 91.7253 556.295 94.968C559.538 98.2107 562.055 101.965 563.847 106.232C565.639 110.413 566.535 114.936 566.535 119.8ZM660.594 155H596.594C592.498 155 588.743 154.019 585.33 152.056C581.917 150.008 579.186 147.32 577.138 143.992C575.175 140.579 574.194 136.781 574.194 132.6C574.194 128.419 575.175 124.664 577.138 121.336C579.186 117.923 581.917 115.235 585.33 113.272C588.743 111.224 592.498 110.2 596.594 110.2H641.394V123H596.594C593.949 123 591.687 123.939 589.81 125.816C587.933 127.693 586.994 129.955 586.994 132.6C586.994 135.245 587.933 137.507 589.81 139.384C591.687 141.261 593.949 142.2 596.594 142.2H647.794V107C647.794 104.355 646.855 102.093 644.978 100.216C643.101 98.3387 640.839 97.4 638.194 97.4H586.994V84.6H638.194C642.375 84.6 646.13 85.624 649.458 87.672C652.871 89.6347 655.559 92.3227 657.522 95.736C659.57 99.064 660.594 102.819 660.594 107V155ZM703.554 155H700.354C696.258 155 692.503 154.019 689.09 152.056C685.677 150.008 682.946 147.32 680.898 143.992C678.935 140.579 677.954 136.781 677.954 132.6V59H690.754V132.6C690.754 135.245 691.693 137.507 693.57 139.384C695.447 141.261 697.709 142.2 700.354 142.2H703.554V155Z" fill="black"/>
</svg>
